<?xml version="1.0" encoding="UTF-8" standalone="no"?>
<svg
   height="56"
   width="56"
   id="svg14"
   xml:space="preserve"
   enable-background="new 0 0 1000 1000"
   viewBox="0 0 56 56"
   y="0px"
   x="0px"
   version="1.1"
   sodipodi:docname="icon-56-56.svg"
   inkscape:version="1.1.2 (0a00cf5339, 2022-02-04)"
   inkscape:export-filename="/home/strukturart/Desktop/Pages/rss-reader/application/icons/icon-56-56.png"
   inkscape:export-xdpi="96"
   inkscape:export-ydpi="96"
   xmlns:inkscape="http://www.inkscape.org/namespaces/inkscape"
   xmlns:sodipodi="http://sodipodi.sourceforge.net/DTD/sodipodi-0.dtd"
   xmlns="http://www.w3.org/2000/svg"
   xmlns:svg="http://www.w3.org/2000/svg"
   xmlns:rdf="http://www.w3.org/1999/02/22-rdf-syntax-ns#"
   xmlns:cc="http://creativecommons.org/ns#"
   xmlns:dc="http://purl.org/dc/elements/1.1/"><g
   id="g825"
   transform="matrix(0.95856497,0,0,0.95856497,1.3264363,1.127945)"><rect
     style="fill:#4d4d4d;fill-opacity:1;stroke:#000000;stroke-width:0"
     id="rect840"
     width="52.161304"
     height="54.057571"
     x="1.7459058"
     y="1.0048436"
     ry="3.5564101"
     inkscape:export-xdpi="242.94824"
     inkscape:export-ydpi="242.94824" /><text
     xml:space="preserve"
     style="font-size:13.9096px;line-height:26.0807px;font-family:Arial;-inkscape-font-specification:Arial;letter-spacing:0px;word-spacing:0px;fill:none;stroke:#000000;stroke-width:1.04323px;stroke-linecap:butt;stroke-linejoin:miter;stroke-opacity:1"
     x="8.6879206"
     y="-69.374306"
     id="text2162"><tspan
       id="tspan2160"
       x="8.6879206"
       y="-69.374306"
       style="stroke-width:1.04323px" /></text><g
     id="layer1"
     transform="matrix(1.0432261,0,0,1.0432261,-0.01477811,-21.615105)" /><g
     id="g999"
     transform="matrix(1.0077561,0,0,1.0077561,1.5534533,-2.7700049)"><circle
       style="fill:#ff0000;stroke-width:1.09672"
       id="path1065"
       cx="26.070896"
       cy="30.566557"
       r="25" /><text
       xml:space="preserve"
       style="font-size:13.3333px;line-height:25px;font-family:Arial;-inkscape-font-specification:Arial;letter-spacing:0px;word-spacing:0px;fill:none;stroke:#000000;stroke-width:1px;stroke-linecap:butt;stroke-linejoin:miter;stroke-opacity:1"
       x="6.4129987"
       y="-50.58881"
       id="text2162-5"><tspan
         id="tspan2160-3"
         x="6.4129987"
         y="-50.58881" /></text><g
       id="layer1-5"
       transform="translate(-1.9291032,-4.8085106)" /><circle
       style="fill:#ffffff;stroke-width:1.18777"
       id="path2315-3"
       cx="21.942539"
       cy="42.712578"
       r="7.5" /><path
       style="fill:#000000;stroke-width:0.074223"
       d="M 21.087406,51.526493 C 19.281397,51.29216 17.691684,50.705567 16.225548,49.732492 15.340304,49.144965 14.069492,47.860548 13.457016,46.934308 11.37148,43.78044 11.316605,40.540557 13.302984,37.840563 c 0.828068,-1.125571 2.736048,-2.881759 4.563921,-4.200841 l 0.870768,-0.62838 -0.10554,-0.252634 c -0.220095,-0.526742 -0.08411,-1.263791 0.308862,-1.674077 0.181468,-0.189464 0.182434,-0.19738 0.07475,-0.610933 -0.217552,-0.835225 0.09506,-1.566078 0.828387,-1.936731 0.191631,-0.09685 0.241235,-0.16781 0.241235,-0.345082 0,-0.473307 0.452692,-1.150359 0.890384,-1.331653 0.152315,-0.06309 0.223024,-0.144162 0.223024,-0.25572 0,-0.360351 0.239122,-0.854071 0.554407,-1.144692 0.328722,-0.303009 0.706379,-0.454256 1.136084,-0.454993 0.187764,-2.93e-4 0.258417,-0.04073 0.310491,-0.17773 0.09775,-0.257074 0.508182,-0.702046 0.774983,-0.840171 0.126617,-0.06557 0.411163,-0.139011 0.632308,-0.163219 l 0.402093,-0.04405 0.239949,-0.96495 c 0.439823,-1.768783 1.129622,-3.723336 1.74826,-4.95375 1.149359,-2.285987 2.758512,-3.573492 5.147328,-4.118483 0.81552,-0.186058 2.767283,-0.166307 3.692645,0.03735 2.042101,0.44947 3.702384,1.322786 5.155152,2.711643 0.918898,0.878474 1.555801,1.737434 2.101756,2.834566 1.071746,2.153706 1.242111,4.160044 0.52101,6.135911 -0.674526,1.848235 -2.551373,3.855686 -5.715434,6.113152 -0.387826,0.276706 -0.71394,0.509664 -0.724683,0.517691 -0.01077,0.0079 0.03103,0.135548 0.09278,0.28339 0.22672,0.542625 0.09585,1.274791 -0.302097,1.69028 -0.180545,0.188488 -0.181939,0.199312 -0.07754,0.600024 0.199143,0.764569 -0.08533,1.504698 -0.721748,1.87765 -0.297248,0.174198 -0.330584,0.223351 -0.374118,0.551492 -0.05829,0.439424 -0.374052,0.901245 -0.773343,1.131035 -0.253324,0.145797 -0.296718,0.213321 -0.372316,0.57931 -0.150335,0.727865 -0.718564,1.225176 -1.50651,1.318494 -0.33513,0.03967 -0.383402,0.06997 -0.511264,0.320589 -0.213154,0.417819 -0.520686,0.647173 -1.129023,0.842019 -0.11539,0.037 -0.117959,0.06861 -0.02654,0.327704 0.308715,0.874983 0.889623,1.648616 1.352674,1.801441 0.789461,0.260539 1.631534,-0.318798 3.169218,-2.180383 1.789755,-2.166755 2.853757,-2.98617 3.867691,-2.97859 1.02585,0.0077 1.742386,0.798965 2.191708,2.420411 0.18869,0.680901 0.189014,0.673455 -0.04186,0.947857 -0.151446,0.179984 -0.250934,0.228379 -0.46953,0.228379 -0.36545,0 -0.577004,-0.228509 -0.720582,-0.778311 -0.242655,-0.929233 -0.617487,-1.522727 -0.96171,-1.522727 -0.515457,0 -1.547373,0.898215 -2.820026,2.454641 -1.577164,1.928834 -2.577115,2.659646 -3.726914,2.723796 -0.463716,0.02595 -0.655487,6.44e-4 -1.005561,-0.131237 -0.515283,-0.194411 -1.165814,-0.797463 -1.510247,-1.400018 -0.125192,-0.219 -0.244036,-0.369312 -0.264102,-0.334016 -0.0201,0.03523 -0.161644,0.481684 -0.314622,0.991991 -0.532368,1.775894 -1.329551,3.584298 -2.044355,4.637608 -1.129551,1.66447 -2.940387,2.739287 -5.063655,3.005523 -0.586546,0.07355 -1.558727,0.08573 -2.024069,0.02533 z m 2.231808,-1.362943 c 1.530582,-0.238161 2.999473,-1.176799 3.832869,-2.449231 0.85961,-1.312464 1.633479,-3.305581 2.289836,-5.897513 L 29.723866,40.7034 29.525223,40.539062 c -0.109247,-0.09039 -0.217559,-0.165542 -0.240685,-0.167013 -0.02313,-0.002 -0.08617,0.222794 -0.140045,0.498359 -0.339539,1.736257 -1.101491,4.004235 -1.8762,5.584627 -0.481854,0.982951 -0.57869,1.126635 -1.127209,1.672545 -1.903613,1.894554 -5.025945,2.166255 -7.925447,0.68966 -2.061163,-1.049663 -3.587114,-2.801272 -4.255657,-4.884971 -0.163731,-0.510322 -0.209191,-0.81539 -0.237816,-1.595878 -0.0521,-1.42006 0.180481,-2.249518 0.923419,-3.2935 0.760203,-1.068238 2.901648,-2.992705 4.732633,-4.253093 0.42974,-0.295826 0.781351,-0.55712 0.781351,-0.580659 0,-0.02357 -0.09651,-0.09982 -0.214474,-0.169509 l -0.214479,-0.126685 -0.80615,0.563647 c -2.281559,1.595279 -4.194666,3.411214 -4.994256,4.740605 -1.387885,2.307468 -0.87168,5.421895 1.310772,7.908347 2.075081,2.364119 5.099465,3.501503 8.078234,3.038006 z m -0.170212,-1.824474 c 0.938025,-0.213353 1.495737,-0.520834 2.154863,-1.18804 0.810535,-0.82045 1.903412,-3.582129 2.541358,-6.421896 0.241215,-1.07373 0.248469,-1.144783 0.12637,-1.237357 -0.339873,-0.257707 -0.36725,-0.249872 -0.417398,0.119367 -0.08746,0.643908 -0.704273,3.011866 -1.048366,4.024634 -0.406378,1.196098 -1.0271,2.502452 -1.433129,3.01612 -0.767579,0.971056 -2.21284,1.481065 -3.668165,1.294422 -1.584789,-0.203237 -3.012383,-0.901467 -4.129543,-2.019743 -1.265334,-1.266589 -1.846763,-2.577551 -1.77334,-3.998388 0.06047,-1.169518 0.379767,-1.745902 1.686058,-3.043358 1.106763,-1.099278 3.082399,-2.618019 4.501688,-3.460599 0.134123,-0.07964 0.132137,-0.09009 -0.04532,-0.238762 -0.102065,-0.08552 -0.20998,-0.156603 -0.239832,-0.157962 -0.110323,-0.0052 -2.050325,1.345287 -2.84058,1.977145 -1.025138,0.819654 -2.606559,2.380677 -2.960442,2.922266 -0.475266,0.727338 -0.597336,1.174238 -0.59733,2.186785 6e-6,1.00038 0.100033,1.432409 0.532756,2.301036 0.375007,0.75277 0.811439,1.334639 1.475478,1.967141 1.082887,1.031469 2.248213,1.654381 3.67339,1.96356 0.659845,0.14316 1.817211,0.140161 2.461457,-0.0068 z m 0.140071,-1.910404 c 0.231122,-0.109958 0.539455,-0.331886 0.685165,-0.49318 0.771597,-0.854068 1.854548,-3.958111 2.33454,-6.691495 l 0.138962,-0.791361 -1.705412,-1.162422 -1.705404,-1.162433 -0.752079,0.454005 c -1.585181,0.956926 -3.282872,2.28164 -4.381889,3.419199 -0.968425,1.002371 -1.121515,1.297701 -1.114442,2.149833 0.0046,0.534335 0.04121,0.71618 0.240041,1.187637 0.629784,1.493142 2.119869,2.745466 3.799061,3.192868 0.815631,0.217322 1.88242,0.172832 2.461457,-0.102651 z m 8.149596,-6.537687 c 0.252018,-0.303663 0.229254,-0.321096 -5.554187,-4.253565 -3.452113,-2.347277 -5.66126,-3.804134 -5.768527,-3.804134 -0.200746,0 -0.356776,0.236251 -0.291622,0.441536 0.02423,0.07648 1.804741,1.33509 3.956692,2.797012 2.15191,1.461903 4.662327,3.168395 5.578694,3.792203 0.916367,0.623814 1.73898,1.134204 1.828029,1.134204 0.08903,0 0.201957,-0.0483 0.250921,-0.107256 z m 1.844212,-1.169441 c 0.162954,-0.162965 0.09914,-0.415477 -0.152166,-0.602139 -1.089158,-0.808969 -12.382951,-8.400866 -12.530008,-8.422903 -0.109984,-0.01648 -0.229424,0.01932 -0.284049,0.08514 -0.158643,0.191151 -0.06372,0.437293 0.251156,0.651692 0.163299,0.111165 2.802071,1.902885 5.863923,3.981606 3.061864,2.078713 5.764613,3.918122 6.006123,4.087579 0.449037,0.315052 0.687241,0.376802 0.845021,0.219022 z m 1.1995,-1.783592 c 0.104928,-0.18754 0.102362,-0.213164 -0.03466,-0.345675 -0.289954,-0.280456 -12.604041,-8.618779 -12.728275,-8.618779 -0.06963,0 -0.189109,0.06908 -0.265526,0.153521 -0.125374,0.138551 -0.128313,0.171208 -0.0301,0.334596 0.149853,0.249218 12.612378,8.71543 12.799196,8.694916 0.08026,-0.0088 0.196966,-0.107171 0.2593,-0.218579 z m 1.101534,-1.556619 c 0.163258,-0.163269 0.09928,-0.415471 -0.152171,-0.599822 -0.132681,-0.09727 -2.646189,-1.808357 -5.58557,-3.802417 -2.939385,-1.99405 -5.661656,-3.84773 -6.049482,-4.119278 -0.816957,-0.57202 -0.923666,-0.620862 -1.123124,-0.514115 -0.106751,0.05714 -0.141092,0.140239 -0.124525,0.301319 0.02112,0.205034 0.516464,0.558726 6.33218,4.521289 3.470112,2.364366 6.377758,4.29958 6.461448,4.300471 0.08369,6.44e-4 0.192253,-0.03841 0.241244,-0.08745 z m 0.417782,-2.180144 c 0.151024,-0.151018 0.147419,-0.276781 -0.01327,-0.462124 -0.07146,-0.08244 -1.649691,-1.183269 -3.507218,-2.446319 -1.85753,-1.263056 -4.34301,-2.952934 -5.523298,-3.755286 -1.180282,-0.802348 -2.188311,-1.458815 -2.240059,-1.458815 -0.165526,0 -0.336168,0.23523 -0.312841,0.431268 0.01909,0.160757 0.883173,0.775027 5.625034,3.998923 3.08134,2.094948 5.659269,3.808992 5.728715,3.808992 0.06949,0 0.178773,-0.05248 0.242919,-0.116639 z m 1.093629,-2.637032 c 2.560951,-1.829119 4.433792,-3.687032 5.109471,-5.068722 0.670607,-1.371331 0.714399,-3.164403 0.116119,-4.753906 -0.974334,-2.588556 -3.275788,-4.723519 -5.916294,-5.488289 -1.023889,-0.296549 -1.521918,-0.368194 -2.550198,-0.366854 -2.243859,0.0032 -3.993737,0.876632 -5.152706,2.572741 -0.700459,1.025081 -1.603316,3.348457 -2.196547,5.652507 l -0.324907,1.26186 0.185553,0.167002 c 0.102047,0.09186 0.21036,0.167021 0.2407,0.167021 0.03034,0 0.13218,-0.342384 0.226326,-0.760831 0.429494,-1.908996 1.146478,-3.978792 1.883461,-5.437117 0.393256,-0.778152 0.530622,-0.970998 1.086917,-1.525933 0.72586,-0.724088 1.464289,-1.15502 2.434047,-1.420458 0.839278,-0.229721 2.536281,-0.230314 3.456235,-0.0013 2.568792,0.639744 4.768278,2.389994 5.849584,4.65482 0.470517,0.985521 0.589928,1.45836 0.639575,2.532425 0.07844,1.697572 -0.324702,2.743875 -1.58817,4.121602 -1.052998,1.148237 -2.430571,2.333097 -3.956562,3.403086 -0.428657,0.300567 -0.810985,0.573846 -0.849621,0.607298 -0.08483,0.07341 0.163938,0.278282 0.342068,0.281692 0.06788,0.002 0.502079,-0.268132 0.964949,-0.598728 z M 35.822392,29.26269 c 2.229082,-1.548649 4.155554,-3.381973 4.716015,-4.487984 0.694825,-1.371179 0.438365,-3.276848 -0.658367,-4.891943 -0.30651,-0.451386 -1.109916,-1.283299 -1.609115,-1.666221 -1.311577,-1.006057 -2.800014,-1.539553 -4.305161,-1.543082 -1.372922,-0.0032 -2.458435,0.398295 -3.27016,1.20958 -0.946791,0.946288 -2.103698,3.897797 -2.735814,6.979705 l -0.136403,0.664996 0.186354,0.146586 c 0.102486,0.08065 0.208275,0.146583 0.235067,0.146583 0.02679,0 0.107123,-0.308957 0.178508,-0.686597 0.211248,-1.117524 0.549594,-2.396654 0.937516,-3.54433 0.945656,-2.79775 1.711265,-3.799144 3.254682,-4.257067 2.099679,-0.62296 4.943239,0.438062 6.520812,2.433122 1.428312,1.806303 1.681082,3.741604 0.683751,5.235115 -0.674329,1.009829 -2.695069,2.780988 -4.682454,4.104137 -0.562872,0.374742 -1.023399,0.699888 -1.023399,0.722533 0,0.02274 0.09157,0.09676 0.203517,0.164674 0.24093,0.146195 0.250282,0.141658 1.504651,-0.729807 z m -1.114358,-1.419565 c 1.875075,-1.288489 3.76568,-3.000037 4.182905,-3.786747 0.583097,-1.099486 0.145873,-2.596093 -1.134368,-3.882881 -0.715737,-0.719412 -1.374586,-1.141844 -2.269156,-1.454931 -0.527637,-0.184667 -0.697218,-0.20789 -1.521651,-0.208412 -0.845863,-5.21e-4 -0.964335,0.01655 -1.341029,0.1932 -0.227252,0.106583 -0.536125,0.320365 -0.686383,0.475079 -0.565177,0.581951 -1.368732,2.570043 -1.934734,4.78681 -0.340387,1.333153 -0.546725,2.569641 -0.452513,2.711719 0.0398,0.05999 0.801905,0.606733 1.693533,1.214852 l 1.621145,1.105676 0.568544,-0.334894 c 0.312699,-0.184202 0.885868,-0.552959 1.273707,-0.819471 z"
       id="path2620" /></g></g><sodipodi:namedview
   pagecolor="#ffffff"
   bordercolor="#666666"
   borderopacity="1"
   objecttolerance="10"
   gridtolerance="10"
   guidetolerance="10"
   inkscape:pageopacity="0"
   inkscape:pageshadow="2"
   inkscape:window-width="1920"
   inkscape:window-height="1016"
   id="namedview10"
   showgrid="false"
   inkscape:zoom="3.104502"
   inkscape:cx="-58.14137"
   inkscape:cy="17.555151"
   inkscape:window-x="0"
   inkscape:window-y="0"
   inkscape:window-maximized="1"
   inkscape:current-layer="g825"
   inkscape:document-rotation="0"
   inkscape:pagecheckerboard="false" /><defs
   id="defs18" />
<metadata
   id="metadata2"> Svg Vector Icons : http://www.onlinewebfonts.com/icon <rdf:RDF><cc:Work
     rdf:about=""><dc:format>image/svg+xml</dc:format><dc:type
       rdf:resource="http://purl.org/dc/dcmitype/StillImage" /></cc:Work></rdf:RDF></metadata>

</svg>
