<?xml version="1.0" encoding="UTF-8" standalone="no"?>
<svg
   height="56"
   width="56"
   id="svg14"
   xml:space="preserve"
   enable-background="new 0 0 1000 1000"
   viewBox="0 0 56 56"
   y="0px"
   x="0px"
   version="1.1"
   sodipodi:docname="icon-56-56.svg"
   inkscape:version="1.1.2 (0a00cf5339, 2022-02-04)"
   inkscape:export-filename="/home/strukturart/Desktop/Pages/rss-reader/application/icons/icon-56-56.png"
   inkscape:export-xdpi="96"
   inkscape:export-ydpi="96"
   xmlns:inkscape="http://www.inkscape.org/namespaces/inkscape"
   xmlns:sodipodi="http://sodipodi.sourceforge.net/DTD/sodipodi-0.dtd"
   xmlns="http://www.w3.org/2000/svg"
   xmlns:svg="http://www.w3.org/2000/svg"
   xmlns:rdf="http://www.w3.org/1999/02/22-rdf-syntax-ns#"
   xmlns:cc="http://creativecommons.org/ns#"
   xmlns:dc="http://purl.org/dc/elements/1.1/"><g
   id="g825"
   transform="matrix(0.95856497,0,0,0.95856497,1.3264363,1.127945)"><rect
     style="fill:#ff0000;fill-opacity:1;stroke:#000000;stroke-width:0"
     id="rect840"
     width="52.161304"
     height="54.057571"
     x="1.7459058"
     y="1.0048436"
     ry="3.5564101"
     inkscape:export-xdpi="242.94824"
     inkscape:export-ydpi="242.94824" /><text
     xml:space="preserve"
     style="font-size:13.9096px;line-height:26.0807px;font-family:Arial;-inkscape-font-specification:Arial;letter-spacing:0px;word-spacing:0px;fill:none;stroke:#000000;stroke-width:1.04323px;stroke-linecap:butt;stroke-linejoin:miter;stroke-opacity:1"
     x="8.6879206"
     y="-69.374306"
     id="text2162"><tspan
       id="tspan2160"
       x="8.6879206"
       y="-69.374306"
       style="stroke-width:1.04323px" /></text><g
     id="layer1"
     transform="matrix(1.0432261,0,0,1.0432261,-0.01477811,-21.615105)" /><path
     d="m 47.933812,17.77734 c -0.0082,-0.02609 -1.203231,-3.096948 -1.381059,-3.54458 -0.617619,-1.555425 -2.432433,-2.108005 -2.880071,-2.308406 -0.557803,-0.255912 -1.078287,-0.410329 -2.056823,-0.624601 a 40.947504,40.947504 0 0 0 -5.326425,-0.798099 c 0,0 -4.902208,-0.464959 -11.338157,0.06846 a 6.2286118,6.2286118 0 0 0 -2.382133,0.651499 c -1.936251,0.999352 -2.59729,2.834968 -2.845377,3.522898 -0.603778,1.676856 -0.411211,3.529826 0.177828,5.712447 0.07462,0.295814 0.02345,0.604644 -0.144005,0.87184 a 1.4339673,1.4339673 0 0 1 -0.7686,0.582957 c -0.329649,0.110181 -0.693124,0.115378 -1.026246,0.01566 a 1.4556561,1.4556561 0 0 1 -0.79202,-0.560376 c -0.327926,-0.49881 -0.839739,-0.891793 -1.454789,-1.1156 a 3.4960032,3.4960032 0 0 0 -1.945794,-0.12145 c -0.647157,0.144005 -1.21969,0.468437 -1.629152,0.920423 -0.409458,0.453687 -0.633274,1.009755 -0.635,1.583167 -0.0016,0.572546 0.21687,1.13034 0.622858,1.585778 0.405982,0.455447 0.975924,0.782486 1.622198,0.930812 0.644564,0.148359 1.32901,0.109323 1.945803,-0.111036 0.616793,-0.220333 1.132077,-0.609845 1.463465,-1.10692 a 1.4053416,1.4053416 0 0 1 0.544789,-0.475383 c 0.228143,-0.11451 0.485791,-0.176109 0.749513,-0.176974 h 0.314027 c 0.583827,0 1.152044,0.160489 1.619621,0.459775 0.468443,0.298418 0.81111,0.718294 0.978528,1.197138 0.252446,0.721766 0.516167,1.47474 0.782481,2.264159 0.0607,0.183909 0.170028,0.50489 0.319236,0.939513 a 0.82932498,0.82932498 0 0 1 -0.06497,0.689653 c -0.12146,0.214269 -0.332253,0.381685 -0.59164,0.469304 -0.258514,0.08765 -0.546518,0.08848 -0.806766,0.0019 -0.258522,-0.08601 -0.471074,-0.252557 -0.594236,-0.466832 A 2.7976699,2.7976699 0 0 0 19.27706,27.77682 3.4144592,3.4144592 0 0 0 17.6609,27.398585 3.3962437,3.3962437 0 0 0 16.057774,27.814988 c -0.477114,0.26546 -0.858821,0.641941 -1.099108,1.084359 a 0.88137446,0.88137446 0 0 1 -0.357417,0.34093 1.0791628,1.0791628 0 0 1 -0.514424,0.123176 1.1043207,1.1043207 0 0 1 -0.523973,-0.132718 0.89959197,0.89959197 0 0 1 -0.360004,-0.351346 C 12.907006,28.346868 12.407327,27.916585 11.788806,27.658941 A 3.4864602,3.4864602 0 0 0 9.7944241,27.464665 c -0.6705726,0.131861 -1.2691392,0.455433 -1.6968162,0.917808 -0.4285449,0.462377 -0.6592967,1.034929 -0.6566909,1.62482 0.0023,0.589892 0.2402925,1.162444 0.6731755,1.622212 0.4320157,0.458913 1.0340508,0.777284 1.7063655,0.903935 0.672304,0.126648 1.374103,0.05286 1.991762,-0.208194 0.615925,-0.261989 1.110393,-0.696601 1.40187,-1.231848 0.08068,-0.138807 0.205597,-0.255911 0.359141,-0.338327 0.154408,-0.08154 0.332251,-0.124919 0.513562,-0.124919 0.182174,0 0.359144,0.04341 0.513561,0.124919 0.154412,0.08237 0.27847,0.19952 0.359135,0.338327 0.240295,0.443295 0.622,0.818909 1.099983,1.084366 a 3.3962437,3.3962437 0 0 0 1.603132,0.416392 3.4179303,3.4179303 0 0 0 1.615271,-0.378218 2.798534,2.798534 0 0 0 1.134681,-1.056612 c 0.09191,-0.15875 0.234234,-0.291479 0.409467,-0.385162 a 1.2578679,1.2578679 0 0 1 0.582959,-0.144012 h 0.670573 c 0.369546,0 0.730411,0.100649 1.02884,0.288012 0.299278,0.187377 0.520495,0.451095 0.633278,0.753858 a 154.58755,154.58755 0 0 0 1.613534,4.139656 0.52049718,0.52049718 0 0 1 0.03117,0.28193 0.55519682,0.55519682 0 0 1 -0.12144,0.263719 0.67924817,0.67924817 0 0 1 -0.24985,0.185645 0.79549261,0.79549261 0 0 1 -0.708734,-0.03462 0.63240324,0.63240324 0 0 1 -0.25764,-0.269797 c -0.268898,-0.555208 -0.754695,-1.012375 -1.372356,-1.29518 a 3.4751831,3.4751831 0 0 0 -2.017778,-0.255046 c -0.687062,0.117979 -1.305583,0.436347 -1.748867,0.901325 -0.444164,0.464107 -0.687061,1.046199 -0.687061,1.647375 0,0.600304 0.242897,1.183262 0.687061,1.648235 0.443284,0.464117 1.061805,0.782468 1.748867,0.899603 a 3.4760519,3.4760519 0 0 0 2.017786,-0.255065 c 0.618527,-0.281926 1.10346,-0.739965 1.372382,-1.29429 a 0.62459674,0.62459674 0 0 1 0.256773,-0.261131 0.77467307,0.77467307 0 0 1 0.381697,-0.09631 h 0.318367 c 0.354819,0 0.700077,0.09279 0.991553,0.265461 0.291481,0.173497 0.514418,0.418134 0.638474,0.702663 a 97.59315,97.59315 0 0 0 1.408808,3.065792 c 0.454588,0.942103 1.347217,2.712652 3.369349,3.473427 1.822605,0.687084 3.727633,0.25677 4.719184,-0.04504 2.628503,-1.047925 4.116256,-2.179135 6.88097,-3.737155 a 11.755407,11.755407 0 0 0 2.476715,-1.747111 c 0.446731,-0.415537 1.425258,-1.365446 1.685523,-2.868819 A 4.3947322,4.3947322 0 0 0 47.018612,34.88796 l 0.04077,-0.02255 c 0.260228,-0.150081 0.43982,-0.381701 0.501407,-0.64542 0.06072,-0.263719 -0.0019,-0.537846 -0.175222,-0.760798 L 38.937026,22.609399 a 1.2110225,1.2110225 0 0 0 -0.75212,-0.430281 1.3498228,1.3498228 0 0 0 -0.887444,0.149218 l -4.092836,2.345699 c -0.26024,0.150091 -0.439814,0.381706 -0.501431,0.645422 -0.06067,0.263721 0.0019,0.537854 0.175246,0.76166 l 8.446806,10.848885 c 0.11796,0.150071 0.279331,0.270654 0.469297,0.348737 0.18998,0.07806 0.399936,0.112772 0.609843,0.09809 a 2.0030454,2.0030454 0 0 1 -0.120579,0.275866 c -0.130978,0.245489 -0.312278,0.46845 -0.536084,0.659283 -2.69792,2.000452 -4.730455,3.065729 -5.867748,3.605318 -0.537839,0.25331 -1.361957,0.698332 -2.07852,0.376493 -1.066144,-0.479722 -2.240737,-3.162025 -2.399479,-3.629603 -1.269157,-3.73196 -1.292567,-3.84821 -6.409928,-20.091176 -0.138788,-0.437225 -0.690522,-1.951867 -0.03992,-2.95642 0.140534,-0.206461 0.311435,-0.39731 0.508353,-0.56647 1.294304,-1.087844 12.088552,-0.758194 14.134969,-0.320984 1.117327,0.238565 2.267635,0.576015 2.927779,1.450456 0.357416,0.470176 0.528323,1.038386 0.664516,1.493821 0.183023,0.610727 0.281923,1.238785 0.292345,1.869457 0.06244,0.596831 0.06584,0.867492 0.312269,1.017561 0.168317,0.101502 0.364384,0.0954 0.894413,0.0103 0.670566,-0.112772 1.49209,-0.305361 2.854917,-0.874439 0.347011,-0.145748 0.446774,-0.198654 0.539577,-0.309695 0.242913,-0.31229 0.121462,-0.711342 -0.148322,-1.610071 z m -33.406346,6.194766 c -0.306232,0 -0.606377,-0.07807 -0.861417,-0.223798 a 1.3975345,1.3975345 0 0 1 -0.570812,-0.596835 1.1555028,1.1555028 0 0 1 -0.08847,-0.768611 c 0.06074,-0.257635 0.208204,-0.494464 0.42506,-0.680974 0.216893,-0.185658 0.492745,-0.312297 0.792897,-0.364351 0.301028,-0.05111 0.613333,-0.02422 0.896124,0.07631 0.283672,0.100639 0.525709,0.270641 0.695741,0.49012 0.170887,0.218607 0.261114,0.475392 0.261114,0.738243 0,0.353068 -0.163955,0.690527 -0.45457,0.94037 a 1.6916154,1.6916154 0 0 1 -1.095645,0.390377 z m -4.05988,7.360708 c -0.306232,0 -0.60637,-0.07809 -0.8614218,-0.225549 A 1.3984019,1.3984019 0 0 1 9.0344864,30.510432 1.1563706,1.1563706 0 0 1 8.9468748,29.741824 c 0.059874,-0.258513 0.2073329,-0.495344 0.4242033,-0.681856 0.2168696,-0.18563 0.4936025,-0.312303 0.7946279,-0.364347 0.301025,-0.05111 0.612449,-0.02422 0.896119,0.07634 0.283669,0.100649 0.525708,0.271535 0.696597,0.490135 0.170031,0.218616 0.261115,0.476248 0.261115,0.739104 0,0.353073 -0.163956,0.691387 -0.45456,0.941229 a 1.6916154,1.6916154 0 0 1 -1.096516,0.390374 z m 7.234912,0 c -0.306235,0 -0.606379,-0.07809 -0.86143,-0.223815 a 1.3984019,1.3984019 0 0 1 -0.572539,-0.597698 1.1555028,1.1555028 0 0 1 -0.08846,-0.7686 c 0.06074,-0.258532 0.208192,-0.496221 0.425072,-0.681863 0.216874,-0.1865 0.492731,-0.313173 0.793743,-0.36433 0.301029,-0.05207 0.613336,-0.02607 0.897007,0.07542 0.283665,0.100629 0.525696,0.270653 0.696588,0.490139 0.170039,0.218613 0.261124,0.476255 0.261124,0.739102 0,0.175229 -0.04077,0.348736 -0.118858,0.510088 -0.07806,0.161349 -0.192577,0.307945 -0.336588,0.432009 a 1.5909853,1.5909853 0 0 1 -0.504875,0.287997 c -0.188242,0.06681 -0.390366,0.101524 -0.594228,0.101524 h 0.0043 z m 3.54372,7.242715 c -0.306234,0 -0.607259,-0.07807 -0.862296,-0.223815 a 1.3984019,1.3984019 0 0 1 -0.571677,-0.596844 1.1563706,1.1563706 0 0 1 -0.08846,-0.769456 c 0.0599,-0.258512 0.207317,-0.495342 0.424198,-0.681861 0.21687,-0.1865 0.493609,-0.3123 0.794624,-0.364339 0.301012,-0.05205 0.612454,-0.02513 0.896117,0.07543 0.283682,0.100638 0.526574,0.271517 0.6966,0.490126 0.170896,0.219485 0.26198,0.477129 0.26198,0.73998 -0.0019,0.352198 -0.166557,0.690528 -0.458032,0.938625 -0.291474,0.248974 -0.685325,0.388637 -1.097375,0.387776 z M 42.470335,34.42196 a 1.1103922,1.1103922 0 0 1 0.366956,-0.589893 c 0.187371,-0.160479 0.425051,-0.26979 0.685307,-0.314904 0.260249,-0.04335 0.530045,-0.02166 0.775542,0.06589 0.244631,0.0868 0.454599,0.234226 0.602036,0.423335 0.147495,0.189111 0.225541,0.411199 0.225541,0.639339 0,0.227295 -0.07805,0.449362 -0.225541,0.638478 -0.147437,0.189115 -0.357405,0.336598 -0.602896,0.423345 a 1.5476109,1.5476109 0 0 1 -1.260468,-0.10581 1.263073,1.263073 0 0 1 -0.373031,-0.317502 1.0661504,1.0661504 0 0 1 -0.200389,-0.416403 0.98981157,0.98981157 0 0 1 0,-0.450219 z"
     id="path956"
     style="stroke-width:0.867464" /></g><sodipodi:namedview
   pagecolor="#ffffff"
   bordercolor="#666666"
   borderopacity="1"
   objecttolerance="10"
   gridtolerance="10"
   guidetolerance="10"
   inkscape:pageopacity="0"
   inkscape:pageshadow="2"
   inkscape:window-width="1920"
   inkscape:window-height="1016"
   id="namedview10"
   showgrid="false"
   inkscape:zoom="3.104502"
   inkscape:cx="-58.14137"
   inkscape:cy="17.555151"
   inkscape:window-x="0"
   inkscape:window-y="0"
   inkscape:window-maximized="1"
   inkscape:current-layer="g825"
   inkscape:document-rotation="0"
   inkscape:pagecheckerboard="false" /><defs
   id="defs18" />
<metadata
   id="metadata2"> Svg Vector Icons : http://www.onlinewebfonts.com/icon <rdf:RDF><cc:Work
     rdf:about=""><dc:format>image/svg+xml</dc:format><dc:type
       rdf:resource="http://purl.org/dc/dcmitype/StillImage" /></cc:Work></rdf:RDF></metadata>

</svg>
